<svg xmlns="http://www.w3.org/2000/svg" xmlns:xlink="http://www.w3.org/1999/xlink" width="500" zoomAndPan="magnify" viewBox="0 0 375 374.999991" height="500" preserveAspectRatio="xMidYMid meet" version="1.0"><defs><clipPath id="2f909a92b8"><path d="M 75.207031 27.5 L 299.457031 27.5 L 299.457031 347.75 L 75.207031 347.75 Z M 75.207031 27.5 " clip-rule="nonzero"/></clipPath></defs><g clip-path="url(#2f909a92b8)"><path fill="#000000" d="M 299.445312 170.550781 L 299.445312 182.148438 C 299.445312 240.316406 255.148438 288.300781 198.582031 293.9375 L 198.582031 324.941406 L 244.285156 324.941406 C 250.546875 324.941406 255.660156 330.066406 255.660156 336.347656 C 255.660156 342.625 250.546875 347.75 244.285156 347.75 L 130.382812 347.75 C 124.117188 347.75 119.003906 342.625 119.003906 336.347656 C 119.003906 330.066406 124.117188 324.941406 130.382812 324.941406 L 175.765625 324.941406 L 175.765625 293.871094 C 119.390625 288.105469 75.222656 240.1875 75.222656 182.148438 L 75.222656 170.550781 C 75.222656 164.273438 80.335938 159.148438 86.597656 159.148438 C 92.863281 159.148438 97.976562 164.273438 97.976562 170.550781 L 97.976562 182.148438 C 97.976562 231.539062 138.054688 271.707031 187.332031 271.707031 C 236.613281 271.707031 276.691406 231.539062 276.691406 182.148438 L 276.691406 170.550781 C 276.691406 164.273438 281.804688 159.148438 288.066406 159.148438 C 294.332031 159.148438 299.445312 164.210938 299.445312 170.550781 Z M 187.332031 248.898438 C 223 248.898438 251.953125 219.878906 251.953125 184.132812 L 251.953125 92.265625 C 251.953125 56.519531 223 27.5 187.332031 27.5 C 151.667969 27.5 122.710938 56.519531 122.710938 92.265625 L 122.710938 184.132812 C 122.710938 219.878906 151.667969 248.898438 187.332031 248.898438 Z M 187.332031 248.898438 " fill-opacity="1" fill-rule="nonzero"/></g></svg>